<svg width="900" height="246" viewBox="0 0 900 246" xmlns="http://www.w3.org/2000/svg">
    <style>
    text {
        font-family: "Inter", -apple-system, BlinkMacSystemFont, "Segoe UI", Roboto, Helvetica, Arial, sans-serif;
        text-anchor: start;
        dominant-baseline: text-before-edge;
        font-size: 12.5px;
        font-weight: 600;
    }
    </style>
        <g transform="translate(0, 0)">
        <clipPath id="clip-TypeScript">
            <path d="M 196.42806688429516 0 c 5.075677908439307 0 7.61351686265896 0 9.296688289981098 1.4375642063998142 a 6 6 0 0 1 0.6657475036190836 0.6657475036190836 c 1.4375642063998142 1.6831714273221392 1.4375642063998142 4.2210103815417925 1.4375642063998142 9.296688289981098 L 207.82806688429517 234.6 c 0 5.075677908439307 0 7.61351686265896 -1.4375642063998142 9.296688289981098 a 6 6 0 0 1 -0.6657475036190836 0.6657475036190836 c -1.6831714273221392 1.4375642063998142 -4.2210103815417925 1.4375642063998142 -9.296688289981098 1.4375642063998142 L 11.399999999999999 246 c -5.075677908439307 0 -7.61351686265896 0 -9.296688289981098 -1.4375642063998142 a 6 6 0 0 1 -0.6657475036190836 -0.6657475036190836 c -1.4375642063998142 -1.6831714273221392 -1.4375642063998142 -4.2210103815417925 -1.4375642063998142 -9.296688289981098 L 0 11.399999999999999 c 0 -5.075677908439307 0 -7.61351686265896 1.4375642063998142 -9.296688289981098 a 6 6 0 0 1 0.6657475036190836 -0.6657475036190836 c 1.6831714273221392 -1.4375642063998142 4.2210103815417925 -1.4375642063998142 9.296688289981098 -1.4375642063998142 Z" />
        </clipPath>
        <path d="M 196.42806688429516 0 c 5.075677908439307 0 7.61351686265896 0 9.296688289981098 1.4375642063998142 a 6 6 0 0 1 0.6657475036190836 0.6657475036190836 c 1.4375642063998142 1.6831714273221392 1.4375642063998142 4.2210103815417925 1.4375642063998142 9.296688289981098 L 207.82806688429517 234.6 c 0 5.075677908439307 0 7.61351686265896 -1.4375642063998142 9.296688289981098 a 6 6 0 0 1 -0.6657475036190836 0.6657475036190836 c -1.6831714273221392 1.4375642063998142 -4.2210103815417925 1.4375642063998142 -9.296688289981098 1.4375642063998142 L 11.399999999999999 246 c -5.075677908439307 0 -7.61351686265896 0 -9.296688289981098 -1.4375642063998142 a 6 6 0 0 1 -0.6657475036190836 -0.6657475036190836 c -1.4375642063998142 -1.6831714273221392 -1.4375642063998142 -4.2210103815417925 -1.4375642063998142 -9.296688289981098 L 0 11.399999999999999 c 0 -5.075677908439307 0 -7.61351686265896 1.4375642063998142 -9.296688289981098 a 6 6 0 0 1 0.6657475036190836 -0.6657475036190836 c 1.6831714273221392 -1.4375642063998142 4.2210103815417925 -1.4375642063998142 9.296688289981098 -1.4375642063998142 Z" fill="#3178c6" title="TypeScript"/>
        <text clip-path="url(#clip-TypeScript)" x="6" y="6" class="n" fill="#ffffff">TypeScript</text>
        <text clip-path="url(#clip-TypeScript)" x="6" y="25" class="per" fill="#ffffffa0">35%</text>
        </g><g transform="translate(211.82806688429517, 0)">
        <clipPath id="clip-Svelte">
            <path d="M 258.6071646710144 0 c 5.075677908439307 0 7.61351686265896 0 9.296688289981098 1.4375642063998142 a 6 6 0 0 1 0.6657475036190836 0.6657475036190836 c 1.4375642063998142 1.6831714273221392 1.4375642063998142 4.2210103815417925 1.4375642063998142 9.296688289981098 L 270.0071646710144 111.0987440334626 c 0 5.075677908439307 0 7.61351686265896 -1.4375642063998142 9.296688289981098 a 6 6 0 0 1 -0.6657475036190836 0.6657475036190836 c -1.6831714273221392 1.4375642063998142 -4.2210103815417925 1.4375642063998142 -9.296688289981098 1.4375642063998142 L 11.399999999999999 122.49874403346259 c -5.075677908439307 0 -7.61351686265896 0 -9.296688289981098 -1.4375642063998142 a 6 6 0 0 1 -0.6657475036190836 -0.6657475036190836 c -1.4375642063998142 -1.6831714273221392 -1.4375642063998142 -4.2210103815417925 -1.4375642063998142 -9.296688289981098 L 0 11.399999999999999 c 0 -5.075677908439307 0 -7.61351686265896 1.4375642063998142 -9.296688289981098 a 6 6 0 0 1 0.6657475036190836 -0.6657475036190836 c 1.6831714273221392 -1.4375642063998142 4.2210103815417925 -1.4375642063998142 9.296688289981098 -1.4375642063998142 Z" />
        </clipPath>
        <path d="M 258.6071646710144 0 c 5.075677908439307 0 7.61351686265896 0 9.296688289981098 1.4375642063998142 a 6 6 0 0 1 0.6657475036190836 0.6657475036190836 c 1.4375642063998142 1.6831714273221392 1.4375642063998142 4.2210103815417925 1.4375642063998142 9.296688289981098 L 270.0071646710144 111.0987440334626 c 0 5.075677908439307 0 7.61351686265896 -1.4375642063998142 9.296688289981098 a 6 6 0 0 1 -0.6657475036190836 0.6657475036190836 c -1.6831714273221392 1.4375642063998142 -4.2210103815417925 1.4375642063998142 -9.296688289981098 1.4375642063998142 L 11.399999999999999 122.49874403346259 c -5.075677908439307 0 -7.61351686265896 0 -9.296688289981098 -1.4375642063998142 a 6 6 0 0 1 -0.6657475036190836 -0.6657475036190836 c -1.4375642063998142 -1.6831714273221392 -1.4375642063998142 -4.2210103815417925 -1.4375642063998142 -9.296688289981098 L 0 11.399999999999999 c 0 -5.075677908439307 0 -7.61351686265896 1.4375642063998142 -9.296688289981098 a 6 6 0 0 1 0.6657475036190836 -0.6657475036190836 c 1.6831714273221392 -1.4375642063998142 4.2210103815417925 -1.4375642063998142 9.296688289981098 -1.4375642063998142 Z" fill="#ff3e00" title="Svelte"/>
        <text clip-path="url(#clip-Svelte)" x="6" y="6" class="n" fill="#ffffff">Svelte</text>
        <text clip-path="url(#clip-Svelte)" x="6" y="25" class="per" fill="#ffffffa0">17.3%</text>
        </g><g transform="translate(211.82806688429517, 126.49874403346259)">
        <clipPath id="clip-C++">
            <path d="M 258.6071646710144 0 c 5.075677908439307 0 7.61351686265896 0 9.296688289981098 1.4375642063998142 a 6 6 0 0 1 0.6657475036190836 0.6657475036190836 c 1.4375642063998142 1.6831714273221392 1.4375642063998142 4.2210103815417925 1.4375642063998142 9.296688289981098 L 270.0071646710144 108.10125596653742 c 0 5.075677908439307 0 7.61351686265896 -1.4375642063998142 9.296688289981098 a 6 6 0 0 1 -0.6657475036190836 0.6657475036190836 c -1.6831714273221392 1.4375642063998142 -4.2210103815417925 1.4375642063998142 -9.296688289981098 1.4375642063998142 L 11.399999999999999 119.50125596653741 c -5.075677908439307 0 -7.61351686265896 0 -9.296688289981098 -1.4375642063998142 a 6 6 0 0 1 -0.6657475036190836 -0.6657475036190836 c -1.4375642063998142 -1.6831714273221392 -1.4375642063998142 -4.2210103815417925 -1.4375642063998142 -9.296688289981098 L 0 11.399999999999999 c 0 -5.075677908439307 0 -7.61351686265896 1.4375642063998142 -9.296688289981098 a 6 6 0 0 1 0.6657475036190836 -0.6657475036190836 c 1.6831714273221392 -1.4375642063998142 4.2210103815417925 -1.4375642063998142 9.296688289981098 -1.4375642063998142 Z" />
        </clipPath>
        <path d="M 258.6071646710144 0 c 5.075677908439307 0 7.61351686265896 0 9.296688289981098 1.4375642063998142 a 6 6 0 0 1 0.6657475036190836 0.6657475036190836 c 1.4375642063998142 1.6831714273221392 1.4375642063998142 4.2210103815417925 1.4375642063998142 9.296688289981098 L 270.0071646710144 108.10125596653742 c 0 5.075677908439307 0 7.61351686265896 -1.4375642063998142 9.296688289981098 a 6 6 0 0 1 -0.6657475036190836 0.6657475036190836 c -1.6831714273221392 1.4375642063998142 -4.2210103815417925 1.4375642063998142 -9.296688289981098 1.4375642063998142 L 11.399999999999999 119.50125596653741 c -5.075677908439307 0 -7.61351686265896 0 -9.296688289981098 -1.4375642063998142 a 6 6 0 0 1 -0.6657475036190836 -0.6657475036190836 c -1.4375642063998142 -1.6831714273221392 -1.4375642063998142 -4.2210103815417925 -1.4375642063998142 -9.296688289981098 L 0 11.399999999999999 c 0 -5.075677908439307 0 -7.61351686265896 1.4375642063998142 -9.296688289981098 a 6 6 0 0 1 0.6657475036190836 -0.6657475036190836 c 1.6831714273221392 -1.4375642063998142 4.2210103815417925 -1.4375642063998142 9.296688289981098 -1.4375642063998142 Z" fill="#f34b7d" title="C++"/>
        <text clip-path="url(#clip-C++)" x="6" y="6" class="n" fill="#ffffff">C++</text>
        <text clip-path="url(#clip-C++)" x="6" y="25" class="per" fill="#ffffffa0">16.6%</text>
        </g><g transform="translate(485.8352315553095, 0)">
        <clipPath id="clip-Kotlin">
            <path d="M 157.04626231951633 0 c 5.075677908439307 0 7.61351686265896 0 9.296688289981098 1.4375642063998142 a 6 6 0 0 1 0.6657475036190836 0.6657475036190836 c 1.4375642063998142 1.6831714273221392 1.4375642063998142 4.2210103815417925 1.4375642063998142 9.296688289981098 L 168.44626231951634 131.86416915003664 c 0 5.075677908439307 0 7.61351686265896 -1.4375642063998142 9.296688289981098 a 6 6 0 0 1 -0.6657475036190836 0.6657475036190836 c -1.6831714273221392 1.4375642063998142 -4.2210103815417925 1.4375642063998142 -9.296688289981098 1.4375642063998142 L 11.399999999999999 143.26416915003665 c -5.075677908439307 0 -7.61351686265896 0 -9.296688289981098 -1.4375642063998142 a 6 6 0 0 1 -0.6657475036190836 -0.6657475036190836 c -1.4375642063998142 -1.6831714273221392 -1.4375642063998142 -4.2210103815417925 -1.4375642063998142 -9.296688289981098 L 0 11.399999999999999 c 0 -5.075677908439307 0 -7.61351686265896 1.4375642063998142 -9.296688289981098 a 6 6 0 0 1 0.6657475036190836 -0.6657475036190836 c 1.6831714273221392 -1.4375642063998142 4.2210103815417925 -1.4375642063998142 9.296688289981098 -1.4375642063998142 Z" />
        </clipPath>
        <path d="M 157.04626231951633 0 c 5.075677908439307 0 7.61351686265896 0 9.296688289981098 1.4375642063998142 a 6 6 0 0 1 0.6657475036190836 0.6657475036190836 c 1.4375642063998142 1.6831714273221392 1.4375642063998142 4.2210103815417925 1.4375642063998142 9.296688289981098 L 168.44626231951634 131.86416915003664 c 0 5.075677908439307 0 7.61351686265896 -1.4375642063998142 9.296688289981098 a 6 6 0 0 1 -0.6657475036190836 0.6657475036190836 c -1.6831714273221392 1.4375642063998142 -4.2210103815417925 1.4375642063998142 -9.296688289981098 1.4375642063998142 L 11.399999999999999 143.26416915003665 c -5.075677908439307 0 -7.61351686265896 0 -9.296688289981098 -1.4375642063998142 a 6 6 0 0 1 -0.6657475036190836 -0.6657475036190836 c -1.4375642063998142 -1.6831714273221392 -1.4375642063998142 -4.2210103815417925 -1.4375642063998142 -9.296688289981098 L 0 11.399999999999999 c 0 -5.075677908439307 0 -7.61351686265896 1.4375642063998142 -9.296688289981098 a 6 6 0 0 1 0.6657475036190836 -0.6657475036190836 c 1.6831714273221392 -1.4375642063998142 4.2210103815417925 -1.4375642063998142 9.296688289981098 -1.4375642063998142 Z" fill="#A97BFF" title="Kotlin"/>
        <text clip-path="url(#clip-Kotlin)" x="6" y="6" class="n" fill="#ffffff">Kotlin</text>
        <text clip-path="url(#clip-Kotlin)" x="6" y="25" class="per" fill="#ffffffa0">10.3%</text>
        </g><g transform="translate(485.8352315553095, 147.26416915003665)">
        <clipPath id="clip-Swift">
            <path d="M 157.04626231951633 0 c 5.075677908439307 0 7.61351686265896 0 9.296688289981098 1.4375642063998142 a 6 6 0 0 1 0.6657475036190836 0.6657475036190836 c 1.4375642063998142 1.6831714273221392 1.4375642063998142 4.2210103815417925 1.4375642063998142 9.296688289981098 L 168.44626231951634 87.3358308499634 c 0 5.075677908439307 0 7.61351686265896 -1.4375642063998142 9.296688289981098 a 6 6 0 0 1 -0.6657475036190836 0.6657475036190836 c -1.6831714273221392 1.4375642063998142 -4.2210103815417925 1.4375642063998142 -9.296688289981098 1.4375642063998142 L 11.399999999999999 98.7358308499634 c -5.075677908439307 0 -7.61351686265896 0 -9.296688289981098 -1.4375642063998142 a 6 6 0 0 1 -0.6657475036190836 -0.6657475036190836 c -1.4375642063998142 -1.6831714273221392 -1.4375642063998142 -4.2210103815417925 -1.4375642063998142 -9.296688289981098 L 0 11.399999999999999 c 0 -5.075677908439307 0 -7.61351686265896 1.4375642063998142 -9.296688289981098 a 6 6 0 0 1 0.6657475036190836 -0.6657475036190836 c 1.6831714273221392 -1.4375642063998142 4.2210103815417925 -1.4375642063998142 9.296688289981098 -1.4375642063998142 Z" />
        </clipPath>
        <path d="M 157.04626231951633 0 c 5.075677908439307 0 7.61351686265896 0 9.296688289981098 1.4375642063998142 a 6 6 0 0 1 0.6657475036190836 0.6657475036190836 c 1.4375642063998142 1.6831714273221392 1.4375642063998142 4.2210103815417925 1.4375642063998142 9.296688289981098 L 168.44626231951634 87.3358308499634 c 0 5.075677908439307 0 7.61351686265896 -1.4375642063998142 9.296688289981098 a 6 6 0 0 1 -0.6657475036190836 0.6657475036190836 c -1.6831714273221392 1.4375642063998142 -4.2210103815417925 1.4375642063998142 -9.296688289981098 1.4375642063998142 L 11.399999999999999 98.7358308499634 c -5.075677908439307 0 -7.61351686265896 0 -9.296688289981098 -1.4375642063998142 a 6 6 0 0 1 -0.6657475036190836 -0.6657475036190836 c -1.4375642063998142 -1.6831714273221392 -1.4375642063998142 -4.2210103815417925 -1.4375642063998142 -9.296688289981098 L 0 11.399999999999999 c 0 -5.075677908439307 0 -7.61351686265896 1.4375642063998142 -9.296688289981098 a 6 6 0 0 1 0.6657475036190836 -0.6657475036190836 c 1.6831714273221392 -1.4375642063998142 4.2210103815417925 -1.4375642063998142 9.296688289981098 -1.4375642063998142 Z" fill="#F05138" title="Swift"/>
        <text clip-path="url(#clip-Swift)" x="6" y="6" class="n" fill="#ffffff">Swift</text>
        <text clip-path="url(#clip-Swift)" x="6" y="25" class="per" fill="#ffffffa0">5.6%</text>
        </g><g transform="translate(658.2814938748259, 0)">
        <clipPath id="clip-Python">
            <path d="M 115.77436869132688 0 c 5.075677908439307 0 7.61351686265896 0 9.296688289981098 1.4375642063998142 a 6 6 0 0 1 0.6657475036190836 0.6657475036190836 c 1.4375642063998142 1.6831714273221392 1.4375642063998142 4.2210103815417925 1.4375642063998142 9.296688289981098 L 127.17436869132689 117.27550430806772 c 0 5.075677908439307 0 7.61351686265896 -1.4375642063998142 9.296688289981098 a 6 6 0 0 1 -0.6657475036190836 0.6657475036190836 c -1.6831714273221392 1.4375642063998142 -4.2210103815417925 1.4375642063998142 -9.296688289981098 1.4375642063998142 L 11.399999999999999 128.67550430806773 c -5.075677908439307 0 -7.61351686265896 0 -9.296688289981098 -1.4375642063998142 a 6 6 0 0 1 -0.6657475036190836 -0.6657475036190836 c -1.4375642063998142 -1.6831714273221392 -1.4375642063998142 -4.2210103815417925 -1.4375642063998142 -9.296688289981098 L 0 11.399999999999999 c 0 -5.075677908439307 0 -7.61351686265896 1.4375642063998142 -9.296688289981098 a 6 6 0 0 1 0.6657475036190836 -0.6657475036190836 c 1.6831714273221392 -1.4375642063998142 4.2210103815417925 -1.4375642063998142 9.296688289981098 -1.4375642063998142 Z" />
        </clipPath>
        <path d="M 115.77436869132688 0 c 5.075677908439307 0 7.61351686265896 0 9.296688289981098 1.4375642063998142 a 6 6 0 0 1 0.6657475036190836 0.6657475036190836 c 1.4375642063998142 1.6831714273221392 1.4375642063998142 4.2210103815417925 1.4375642063998142 9.296688289981098 L 127.17436869132689 117.27550430806772 c 0 5.075677908439307 0 7.61351686265896 -1.4375642063998142 9.296688289981098 a 6 6 0 0 1 -0.6657475036190836 0.6657475036190836 c -1.6831714273221392 1.4375642063998142 -4.2210103815417925 1.4375642063998142 -9.296688289981098 1.4375642063998142 L 11.399999999999999 128.67550430806773 c -5.075677908439307 0 -7.61351686265896 0 -9.296688289981098 -1.4375642063998142 a 6 6 0 0 1 -0.6657475036190836 -0.6657475036190836 c -1.4375642063998142 -1.6831714273221392 -1.4375642063998142 -4.2210103815417925 -1.4375642063998142 -9.296688289981098 L 0 11.399999999999999 c 0 -5.075677908439307 0 -7.61351686265896 1.4375642063998142 -9.296688289981098 a 6 6 0 0 1 0.6657475036190836 -0.6657475036190836 c 1.6831714273221392 -1.4375642063998142 4.2210103815417925 -1.4375642063998142 9.296688289981098 -1.4375642063998142 Z" fill="#3572A5" title="Python"/>
        <text clip-path="url(#clip-Python)" x="6" y="6" class="n" fill="#ffffff">Python</text>
        <text clip-path="url(#clip-Python)" x="6" y="25" class="per" fill="#ffffffa0">5.5%</text>
        </g><g transform="translate(789.4558625661527, 0)">
        <clipPath id="clip-Rust">
            <path d="M 99.14413743384725 0 c 5.075677908439307 0 7.61351686265896 0 9.296688289981098 1.4375642063998142 a 6 6 0 0 1 0.6657475036190836 0.6657475036190836 c 1.4375642063998142 1.6831714273221392 1.4375642063998142 4.2210103815417925 1.4375642063998142 9.296688289981098 L 110.54413743384725 117.27550430806772 c 0 5.075677908439307 0 7.61351686265896 -1.4375642063998142 9.296688289981098 a 6 6 0 0 1 -0.6657475036190836 0.6657475036190836 c -1.6831714273221392 1.4375642063998142 -4.2210103815417925 1.4375642063998142 -9.296688289981098 1.4375642063998142 L 11.399999999999999 128.67550430806773 c -5.075677908439307 0 -7.61351686265896 0 -9.296688289981098 -1.4375642063998142 a 6 6 0 0 1 -0.6657475036190836 -0.6657475036190836 c -1.4375642063998142 -1.6831714273221392 -1.4375642063998142 -4.2210103815417925 -1.4375642063998142 -9.296688289981098 L 0 11.399999999999999 c 0 -5.075677908439307 0 -7.61351686265896 1.4375642063998142 -9.296688289981098 a 6 6 0 0 1 0.6657475036190836 -0.6657475036190836 c 1.6831714273221392 -1.4375642063998142 4.2210103815417925 -1.4375642063998142 9.296688289981098 -1.4375642063998142 Z" />
        </clipPath>
        <path d="M 99.14413743384725 0 c 5.075677908439307 0 7.61351686265896 0 9.296688289981098 1.4375642063998142 a 6 6 0 0 1 0.6657475036190836 0.6657475036190836 c 1.4375642063998142 1.6831714273221392 1.4375642063998142 4.2210103815417925 1.4375642063998142 9.296688289981098 L 110.54413743384725 117.27550430806772 c 0 5.075677908439307 0 7.61351686265896 -1.4375642063998142 9.296688289981098 a 6 6 0 0 1 -0.6657475036190836 0.6657475036190836 c -1.6831714273221392 1.4375642063998142 -4.2210103815417925 1.4375642063998142 -9.296688289981098 1.4375642063998142 L 11.399999999999999 128.67550430806773 c -5.075677908439307 0 -7.61351686265896 0 -9.296688289981098 -1.4375642063998142 a 6 6 0 0 1 -0.6657475036190836 -0.6657475036190836 c -1.4375642063998142 -1.6831714273221392 -1.4375642063998142 -4.2210103815417925 -1.4375642063998142 -9.296688289981098 L 0 11.399999999999999 c 0 -5.075677908439307 0 -7.61351686265896 1.4375642063998142 -9.296688289981098 a 6 6 0 0 1 0.6657475036190836 -0.6657475036190836 c 1.6831714273221392 -1.4375642063998142 4.2210103815417925 -1.4375642063998142 9.296688289981098 -1.4375642063998142 Z" fill="#dea584" title="Rust"/>
        <text clip-path="url(#clip-Rust)" x="6" y="6" class="n" fill="#000000ff">Rust</text>
        <text clip-path="url(#clip-Rust)" x="6" y="25" class="per" fill="#00000080">4.4%</text>
        </g><g transform="translate(658.2814938748259, 132.67550430806773)">
        <clipPath id="clip-C">
            <path d="M 100.99160393433769 0 c 5.075677908439307 0 7.61351686265896 0 9.296688289981098 1.4375642063998142 a 6 6 0 0 1 0.6657475036190836 0.6657475036190836 c 1.4375642063998142 1.6831714273221392 1.4375642063998142 4.2210103815417925 1.4375642063998142 9.296688289981098 L 112.3916039343377 101.92449569193224 c 0 5.075677908439307 0 7.61351686265896 -1.4375642063998142 9.296688289981098 a 6 6 0 0 1 -0.6657475036190836 0.6657475036190836 c -1.6831714273221392 1.4375642063998142 -4.2210103815417925 1.4375642063998142 -9.296688289981098 1.4375642063998142 L 11.399999999999999 113.32449569193224 c -5.075677908439307 0 -7.61351686265896 0 -9.296688289981098 -1.4375642063998142 a 6 6 0 0 1 -0.6657475036190836 -0.6657475036190836 c -1.4375642063998142 -1.6831714273221392 -1.4375642063998142 -4.2210103815417925 -1.4375642063998142 -9.296688289981098 L 0 11.399999999999999 c 0 -5.075677908439307 0 -7.61351686265896 1.4375642063998142 -9.296688289981098 a 6 6 0 0 1 0.6657475036190836 -0.6657475036190836 c 1.6831714273221392 -1.4375642063998142 4.2210103815417925 -1.4375642063998142 9.296688289981098 -1.4375642063998142 Z" />
        </clipPath>
        <path d="M 100.99160393433769 0 c 5.075677908439307 0 7.61351686265896 0 9.296688289981098 1.4375642063998142 a 6 6 0 0 1 0.6657475036190836 0.6657475036190836 c 1.4375642063998142 1.6831714273221392 1.4375642063998142 4.2210103815417925 1.4375642063998142 9.296688289981098 L 112.3916039343377 101.92449569193224 c 0 5.075677908439307 0 7.61351686265896 -1.4375642063998142 9.296688289981098 a 6 6 0 0 1 -0.6657475036190836 0.6657475036190836 c -1.6831714273221392 1.4375642063998142 -4.2210103815417925 1.4375642063998142 -9.296688289981098 1.4375642063998142 L 11.399999999999999 113.32449569193224 c -5.075677908439307 0 -7.61351686265896 0 -9.296688289981098 -1.4375642063998142 a 6 6 0 0 1 -0.6657475036190836 -0.6657475036190836 c -1.4375642063998142 -1.6831714273221392 -1.4375642063998142 -4.2210103815417925 -1.4375642063998142 -9.296688289981098 L 0 11.399999999999999 c 0 -5.075677908439307 0 -7.61351686265896 1.4375642063998142 -9.296688289981098 a 6 6 0 0 1 0.6657475036190836 -0.6657475036190836 c 1.6831714273221392 -1.4375642063998142 4.2210103815417925 -1.4375642063998142 9.296688289981098 -1.4375642063998142 Z" fill="#555555" title="C"/>
        <text clip-path="url(#clip-C)" x="6" y="6" class="n" fill="#ffffff">C</text>
        <text clip-path="url(#clip-C)" x="6" y="25" class="per" fill="#ffffffa0">3.7%</text>
        </g><g transform="translate(774.6730978091636, 132.67550430806773)">
        <clipPath id="clip-HLSL">
            <path d="M 58.74983432891995 0 c 5.075677908439307 0 7.61351686265896 0 9.296688289981098 1.4375642063998142 a 6 6 0 0 1 0.6657475036190836 0.6657475036190836 c 1.4375642063998142 1.6831714273221392 1.4375642063998142 4.2210103815417925 1.4375642063998142 9.296688289981098 L 70.14983432891995 48.66085963527596 c 0 5.075677908439307 0 7.61351686265896 -1.4375642063998142 9.296688289981098 a 6 6 0 0 1 -0.6657475036190836 0.6657475036190836 c -1.6831714273221392 1.4375642063998142 -4.2210103815417925 1.4375642063998142 -9.296688289981098 1.4375642063998142 L 11.399999999999999 60.06085963527596 c -5.075677908439307 0 -7.61351686265896 0 -9.296688289981098 -1.4375642063998142 a 6 6 0 0 1 -0.6657475036190836 -0.6657475036190836 c -1.4375642063998142 -1.6831714273221392 -1.4375642063998142 -4.2210103815417925 -1.4375642063998142 -9.296688289981098 L 0 11.399999999999999 c 0 -5.075677908439307 0 -7.61351686265896 1.4375642063998142 -9.296688289981098 a 6 6 0 0 1 0.6657475036190836 -0.6657475036190836 c 1.6831714273221392 -1.4375642063998142 4.2210103815417925 -1.4375642063998142 9.296688289981098 -1.4375642063998142 Z" />
        </clipPath>
        <path d="M 58.74983432891995 0 c 5.075677908439307 0 7.61351686265896 0 9.296688289981098 1.4375642063998142 a 6 6 0 0 1 0.6657475036190836 0.6657475036190836 c 1.4375642063998142 1.6831714273221392 1.4375642063998142 4.2210103815417925 1.4375642063998142 9.296688289981098 L 70.14983432891995 48.66085963527596 c 0 5.075677908439307 0 7.61351686265896 -1.4375642063998142 9.296688289981098 a 6 6 0 0 1 -0.6657475036190836 0.6657475036190836 c -1.6831714273221392 1.4375642063998142 -4.2210103815417925 1.4375642063998142 -9.296688289981098 1.4375642063998142 L 11.399999999999999 60.06085963527596 c -5.075677908439307 0 -7.61351686265896 0 -9.296688289981098 -1.4375642063998142 a 6 6 0 0 1 -0.6657475036190836 -0.6657475036190836 c -1.4375642063998142 -1.6831714273221392 -1.4375642063998142 -4.2210103815417925 -1.4375642063998142 -9.296688289981098 L 0 11.399999999999999 c 0 -5.075677908439307 0 -7.61351686265896 1.4375642063998142 -9.296688289981098 a 6 6 0 0 1 0.6657475036190836 -0.6657475036190836 c 1.6831714273221392 -1.4375642063998142 4.2210103815417925 -1.4375642063998142 9.296688289981098 -1.4375642063998142 Z" fill="#aace60" title="HLSL"/>
        <text clip-path="url(#clip-HLSL)" x="6" y="6" class="n" fill="#000000ff">HLSL</text>
        <text clip-path="url(#clip-HLSL)" x="6" y="25" class="per" fill="#00000080">0.6%</text>
        </g><g transform="translate(774.6730978091636, 196.7363639433437)">
        <clipPath id="clip-Metal">
            <path d="M 58.74983432891995 0 c 5.075677908439307 0 7.61351686265896 0 9.296688289981098 1.4375642063998142 a 6 6 0 0 1 0.6657475036190836 0.6657475036190836 c 1.4375642063998142 1.6831714273221392 1.4375642063998142 4.2210103815417925 1.4375642063998142 9.296688289981098 L 70.14983432891995 37.86363605665631 c 0 5.075677908439307 0 7.61351686265896 -1.4375642063998142 9.296688289981098 a 6 6 0 0 1 -0.6657475036190836 0.6657475036190836 c -1.6831714273221392 1.4375642063998142 -4.2210103815417925 1.4375642063998142 -9.296688289981098 1.4375642063998142 L 11.399999999999999 49.26363605665631 c -5.075677908439307 0 -7.61351686265896 0 -9.296688289981098 -1.4375642063998142 a 6 6 0 0 1 -0.6657475036190836 -0.6657475036190836 c -1.4375642063998142 -1.6831714273221392 -1.4375642063998142 -4.2210103815417925 -1.4375642063998142 -9.296688289981098 L 0 11.399999999999999 c 0 -5.075677908439307 0 -7.61351686265896 1.4375642063998142 -9.296688289981098 a 6 6 0 0 1 0.6657475036190836 -0.6657475036190836 c 1.6831714273221392 -1.4375642063998142 4.2210103815417925 -1.4375642063998142 9.296688289981098 -1.4375642063998142 Z" />
        </clipPath>
        <path d="M 58.74983432891995 0 c 5.075677908439307 0 7.61351686265896 0 9.296688289981098 1.4375642063998142 a 6 6 0 0 1 0.6657475036190836 0.6657475036190836 c 1.4375642063998142 1.6831714273221392 1.4375642063998142 4.2210103815417925 1.4375642063998142 9.296688289981098 L 70.14983432891995 37.86363605665631 c 0 5.075677908439307 0 7.61351686265896 -1.4375642063998142 9.296688289981098 a 6 6 0 0 1 -0.6657475036190836 0.6657475036190836 c -1.6831714273221392 1.4375642063998142 -4.2210103815417925 1.4375642063998142 -9.296688289981098 1.4375642063998142 L 11.399999999999999 49.26363605665631 c -5.075677908439307 0 -7.61351686265896 0 -9.296688289981098 -1.4375642063998142 a 6 6 0 0 1 -0.6657475036190836 -0.6657475036190836 c -1.4375642063998142 -1.6831714273221392 -1.4375642063998142 -4.2210103815417925 -1.4375642063998142 -9.296688289981098 L 0 11.399999999999999 c 0 -5.075677908439307 0 -7.61351686265896 1.4375642063998142 -9.296688289981098 a 6 6 0 0 1 0.6657475036190836 -0.6657475036190836 c 1.6831714273221392 -1.4375642063998142 4.2210103815417925 -1.4375642063998142 9.296688289981098 -1.4375642063998142 Z" fill="#8f14e9" title="Metal"/>
        <text clip-path="url(#clip-Metal)" x="6" y="6" class="n" fill="#ffffff">Metal</text>
        <text clip-path="url(#clip-Metal)" x="6" y="25" class="per" fill="#ffffffa0">0.5%</text>
        </g><g transform="translate(848.8229321380835, 132.67550430806773)">
        <clipPath id="clip-JavaScript">
            <path d="M 39.7770678619165 0 c 5.075677908439307 0 7.61351686265896 0 9.296688289981098 1.4375642063998142 a 6 6 0 0 1 0.6657475036190836 0.6657475036190836 c 1.4375642063998142 1.6831714273221392 1.4375642063998142 4.2210103815417925 1.4375642063998142 9.296688289981098 L 51.1770678619165 48.06552086856565 c 0 5.075677908439307 0 7.61351686265896 -1.4375642063998142 9.296688289981098 a 6 6 0 0 1 -0.6657475036190836 0.6657475036190836 c -1.6831714273221392 1.4375642063998142 -4.2210103815417925 1.4375642063998142 -9.296688289981098 1.4375642063998142 L 11.399999999999999 59.46552086856565 c -5.075677908439307 0 -7.61351686265896 0 -9.296688289981098 -1.4375642063998142 a 6 6 0 0 1 -0.6657475036190836 -0.6657475036190836 c -1.4375642063998142 -1.6831714273221392 -1.4375642063998142 -4.2210103815417925 -1.4375642063998142 -9.296688289981098 L 0 11.399999999999999 c 0 -5.075677908439307 0 -7.61351686265896 1.4375642063998142 -9.296688289981098 a 6 6 0 0 1 0.6657475036190836 -0.6657475036190836 c 1.6831714273221392 -1.4375642063998142 4.2210103815417925 -1.4375642063998142 9.296688289981098 -1.4375642063998142 Z" />
        </clipPath>
        <path d="M 39.7770678619165 0 c 5.075677908439307 0 7.61351686265896 0 9.296688289981098 1.4375642063998142 a 6 6 0 0 1 0.6657475036190836 0.6657475036190836 c 1.4375642063998142 1.6831714273221392 1.4375642063998142 4.2210103815417925 1.4375642063998142 9.296688289981098 L 51.1770678619165 48.06552086856565 c 0 5.075677908439307 0 7.61351686265896 -1.4375642063998142 9.296688289981098 a 6 6 0 0 1 -0.6657475036190836 0.6657475036190836 c -1.6831714273221392 1.4375642063998142 -4.2210103815417925 1.4375642063998142 -9.296688289981098 1.4375642063998142 L 11.399999999999999 59.46552086856565 c -5.075677908439307 0 -7.61351686265896 0 -9.296688289981098 -1.4375642063998142 a 6 6 0 0 1 -0.6657475036190836 -0.6657475036190836 c -1.4375642063998142 -1.6831714273221392 -1.4375642063998142 -4.2210103815417925 -1.4375642063998142 -9.296688289981098 L 0 11.399999999999999 c 0 -5.075677908439307 0 -7.61351686265896 1.4375642063998142 -9.296688289981098 a 6 6 0 0 1 0.6657475036190836 -0.6657475036190836 c 1.6831714273221392 -1.4375642063998142 4.2210103815417925 -1.4375642063998142 9.296688289981098 -1.4375642063998142 Z" fill="#f1e05a" title="JavaScript"/>
        <text clip-path="url(#clip-JavaScript)" x="6" y="6" class="n" fill="#000000ff">JavaScript</text>
        <text clip-path="url(#clip-JavaScript)" x="6" y="25" class="per" fill="#00000080">0.4%</text>
        </g><g transform="translate(848.8229321380835, 196.14102517663338)">
        <clipPath id="clip-Vue">
            <path d="M 39.777067861916045 0 c 5.075677908439307 0 7.61351686265896 0 9.296688289981098 1.4375642063998142 a 6 6 0 0 1 0.6657475036190836 0.6657475036190836 c 1.4375642063998142 1.6831714273221392 1.4375642063998142 4.2210103815417925 1.4375642063998142 9.296688289981098 L 51.17706786191604 38.458974823366624 c 0 5.075677908439307 0 7.61351686265896 -1.4375642063998142 9.296688289981098 a 6 6 0 0 1 -0.6657475036190836 0.6657475036190836 c -1.6831714273221392 1.4375642063998142 -4.2210103815417925 1.4375642063998142 -9.296688289981098 1.4375642063998142 L 11.399999999999999 49.85897482336662 c -5.075677908439307 0 -7.61351686265896 0 -9.296688289981098 -1.4375642063998142 a 6 6 0 0 1 -0.6657475036190836 -0.6657475036190836 c -1.4375642063998142 -1.6831714273221392 -1.4375642063998142 -4.2210103815417925 -1.4375642063998142 -9.296688289981098 L 0 11.399999999999999 c 0 -5.075677908439307 0 -7.61351686265896 1.4375642063998142 -9.296688289981098 a 6 6 0 0 1 0.6657475036190836 -0.6657475036190836 c 1.6831714273221392 -1.4375642063998142 4.2210103815417925 -1.4375642063998142 9.296688289981098 -1.4375642063998142 Z" />
        </clipPath>
        <path d="M 39.777067861916045 0 c 5.075677908439307 0 7.61351686265896 0 9.296688289981098 1.4375642063998142 a 6 6 0 0 1 0.6657475036190836 0.6657475036190836 c 1.4375642063998142 1.6831714273221392 1.4375642063998142 4.2210103815417925 1.4375642063998142 9.296688289981098 L 51.17706786191604 38.458974823366624 c 0 5.075677908439307 0 7.61351686265896 -1.4375642063998142 9.296688289981098 a 6 6 0 0 1 -0.6657475036190836 0.6657475036190836 c -1.6831714273221392 1.4375642063998142 -4.2210103815417925 1.4375642063998142 -9.296688289981098 1.4375642063998142 L 11.399999999999999 49.85897482336662 c -5.075677908439307 0 -7.61351686265896 0 -9.296688289981098 -1.4375642063998142 a 6 6 0 0 1 -0.6657475036190836 -0.6657475036190836 c -1.4375642063998142 -1.6831714273221392 -1.4375642063998142 -4.2210103815417925 -1.4375642063998142 -9.296688289981098 L 0 11.399999999999999 c 0 -5.075677908439307 0 -7.61351686265896 1.4375642063998142 -9.296688289981098 a 6 6 0 0 1 0.6657475036190836 -0.6657475036190836 c 1.6831714273221392 -1.4375642063998142 4.2210103815417925 -1.4375642063998142 9.296688289981098 -1.4375642063998142 Z" fill="#41b883" title="Vue"/>
        <text clip-path="url(#clip-Vue)" x="6" y="6" class="n" fill="#ffffff">Vue</text>
        <text clip-path="url(#clip-Vue)" x="6" y="25" class="per" fill="#ffffffa0">0.3%</text>
        </g>
    </svg>